<svg xmlns="http://www.w3.org/2000/svg" aria-hidden="true" style="position:absolute;width:0;height:0;overflow:hidden">
  <symbol id="arrow-left" viewBox="0 0 24 24">
    <path stroke-linecap="round" stroke-linejoin="round" stroke-width="2" d="M15 19l-7-7 7-7"/>
  </symbol>
  <symbol id="beaker" viewBox="0 0 24 24">
    <path stroke-linecap="round" stroke-linejoin="round" stroke-width="2"
                      d="M19.428 15.428a2 2 0 00-1.022-.547l-2.387-.477a6 6 0 00-3.86.517l-.318.158a6 6 0 01-3.86.517L6.05 15.21a2 2 0 00-1.806.547M8 4h8l-1 1v5.172a2 2 0 00.586 1.414l5 5c1.26 1.26.367 3.414-1.415 3.414H4.828c-1.782 0-2.674-2.154-1.414-3.414l5-5A2 2 0 009 10.172V5L8 4z"/>
  </symbol>
  <symbol id="blocks" viewBox="0 0 24 24">
    <path stroke-linecap="round" stroke-linejoin="round" stroke-width="2"
                      d="M4 5a1 1 0 011-1h6a1 1 0 011 1v6a1 1 0 01-1 1H5a1 1 0 01-1-1V5zM14 13a1 1 0 011-1h4a1 1 0 011 1v6a1 1 0 01-1 1h-4a1 1 0 01-1-1v-6z"/>
  </symbol>
  <symbol id="calendar" viewBox="0 0 24 24">
    <path stroke-linecap="round" stroke-linejoin="round" stroke-width="2"
                        d="M8 7V3m8 4V3M4 11h16M5 5h14a1 1 0 011 1v14a1 1 0 01-1 1H5a1 1 0 01-1-1V6a1 1 0 011-1z"/>
  </symbol>
  <symbol id="chevron-down" viewBox="0 0 24 24">
    <path stroke-linecap="round" stroke-linejoin="round" stroke-width="2" d="M19 9l-7 7-7-7"/>
  </symbol>
  <symbol id="chevron-right" viewBox="0 0 24 24">
    <path stroke-linecap="round" stroke-linejoin="round" stroke-width="2" d="M9 5l7 7-7 7"/>
  </symbol>
  <symbol id="clock" viewBox="0 0 24 24">
    <path stroke-linecap="round" stroke-linejoin="round" stroke-width="2"
                        d="M12 8v4l3 3m6-3a9 9 0 11-18 0 9 9 0 0118 0z"/>
  </symbol>
  <symbol id="cloud-upload" viewBox="0 0 24 24">
    <path stroke-linecap="round" stroke-linejoin="round" stroke-width="2"
                                    d="M12 16.5V9.75m0 0l-3 3m3-3l3 3"/>
                              <path stroke-linecap="round" stroke-linejoin="round" stroke-width="2"
                                    d="M6.75 19.5a4.5 4.5 0 01-.858-8.917 5.25 5.25 0 0110.233-2.33 3.75 3.75 0 013.125 6.816"/>
  </symbol>
  <symbol id="code" viewBox="0 0 24 24">
    <path stroke-linecap="round" stroke-linejoin="round" stroke-width="2"
                      d="M8 9l-3 3 3 3m8-6l3 3-3 3M14 5l-4 14"/>
  </symbol>
  <symbol id="copy" viewBox="0 0 24 24">
    <path stroke-linecap="round" stroke-linejoin="round" stroke-width="2"
                            d="M8 16H6a2 2 0 01-2-2V6a2 2 0 012-2h8a2 2 0 012 2v2m-6 12h8a2 2 0 002-2v-8a2 2 0 00-2-2h-8a2 2 0 00-2 2v8a2 2 0 002 2z"/>
  </symbol>
  <symbol id="duplicate" viewBox="0 0 24 24">
    <rect width="14" height="14" x="8" y="8" rx="2" ry="2" stroke-linecap="round" stroke-linejoin="round" stroke-width="2"/>
    <path stroke-linecap="round" stroke-linejoin="round" stroke-width="2"
                            d="M4 16c-1.1 0-2-.9-2-2V4c0-1.1.9-2 2-2h10c1.1 0 2 .9 2 2M15 11v6m-3-3h6"/>
  </symbol>
  <symbol id="document" viewBox="0 0 24 24">
    <path stroke-linecap="round" stroke-linejoin="round" stroke-width="2"
                d="M9 12h6m-6 4h6m2 5H7a2 2 0 01-2-2V5a2 2 0 012-2h5.586a1 1 0 01.707.293l5.414 5.414a1 1 0 01.293.707V19a2 2 0 01-2 2z"/>
  </symbol>
  <symbol id="document-plus" viewBox="0 0 24 24">
    <path stroke-linecap="round" stroke-linejoin="round" stroke-width="1.5"
                      d="M9 13h6m-3-3v6m5 5H7a2 2 0 01-2-2V5a2 2 0 012-2h5.586a1 1 0 01.707.293l5.414 5.414a1 1 0 01.293.707V19a2 2 0 01-2 2z"/>
  </symbol>
  <symbol id="download" viewBox="0 0 24 24">
    <path stroke-linecap="round" stroke-linejoin="round" stroke-width="2"
                      d="M3 16.5v2.25A2.25 2.25 0 005.25 21h13.5A2.25 2.25 0 0021 18.75V16.5M7.5 10.5L12 15m0 0l4.5-4.5M12 15V3"/>
  </symbol>
  <symbol id="edit-square" viewBox="0 0 24 24">
    <path stroke-linecap="round" stroke-linejoin="round" stroke-width="2"
                    d="M11 5H6a2 2 0 00-2 2v11a2 2 0 002 2h11a2 2 0 002-2v-5m-1.414-9.414a2 2 0 112.828 2.828L11.828 15H9v-2.828l8.586-8.586z"/>
  </symbol>
  <symbol id="eye-off" viewBox="0 0 24 24">
    <path stroke-linecap="round" stroke-linejoin="round" stroke-width="2"
                                    d="M3.98 8.223A10.477 10.477 0 001.934 12C3.226 16.338 7.244 19.5 12 19.5c1.927 0 3.733-.52 5.285-1.428"/>
                              <path stroke-linecap="round" stroke-linejoin="round" stroke-width="2"
                                    d="M6.228 6.228A10.45 10.45 0 0112 4.5c4.756 0 8.773 3.162 10.065 7.5a10.523 10.523 0 01-4.293 5.774M6.228 6.228L3 3m3.228 3.228l3.65 3.65m7.894 7.894L21 21m-3.228-3.228l-3.65-3.65m0 0a3 3 0 10-4.243-4.243m4.243 4.243L9.88 9.88"/>
  </symbol>
  <symbol id="folder" viewBox="0 0 24 24">
    <path stroke-linecap="round" stroke-linejoin="round" stroke-width="2"
                        d="M3 7a2 2 0 012-2h4l2 2h8a2 2 0 012 2v8a2 2 0 01-2 2H5a2 2 0 01-2-2V7z"/>
  </symbol>
  <symbol id="github" viewBox="0 0 24 24">
    <path d="M12 2C6.477 2 2 6.484 2 12.017c0 4.425 2.865 8.18 6.839 9.504.5.092.682-.217.682-.483 0-.237-.008-.868-.013-1.703-2.782.605-3.369-1.343-3.369-1.343-.454-1.158-1.11-1.466-1.11-1.466-.908-.62.069-.608.069-.608 1.003.07 1.531 1.032 1.531 1.032.892 1.53 2.341 1.088 2.91.832.092-.647.35-1.088.636-1.338-2.22-.253-4.555-1.113-4.555-4.951 0-1.093.39-1.988 1.029-2.688-.103-.253-.446-1.272.098-2.65 0 0 .84-.27 2.75 1.026A9.564 9.564 0 0112 6.844c.85.004 1.705.115 2.504.337 1.909-1.296 2.747-1.027 2.747-1.027.546 1.379.202 2.398.1 2.651.64.7 1.028 1.595 1.028 2.688 0 3.848-2.339 4.695-4.566 4.943.359.309.678.92.678 1.855 0 1.338-.012 2.419-.012 2.747 0 .268.18.58.688.482A10.019 10.019 0 0022 12.017C22 6.484 17.522 2 12 2z"/>
  </symbol>
  <symbol id="google" viewBox="0 0 24 24">
    <path d="M22.56 12.25c0-.78-.07-1.53-.2-2.25H12v4.26h5.92c-.26 1.37-1.04 2.53-2.21 3.31v2.77h3.57c2.08-1.92 3.28-4.74 3.28-8.09z" fill="#4285F4"/>
               <path d="M12 23c2.97 0 5.46-.98 7.28-2.66l-3.57-2.77c-.98.66-2.23 1.06-3.71 1.06-2.86 0-5.29-1.93-6.16-4.53H2.18v2.84C3.99 20.53 7.7 23 12 23z" fill="#34A853"/>
               <path d="M5.84 14.09c-.22-.66-.35-1.36-.35-2.09s.13-1.43.35-2.09V7.07H2.18C1.43 8.55 1 10.22 1 12s.43 3.45 1.18 4.93l2.85-2.22.81-.62z" fill="#FBBC05"/>
               <path d="M12 5.38c1.62 0 3.06.56 4.21 1.64l3.15-3.15C17.45 2.09 14.97 1 12 1 7.7 1 3.99 3.47 2.18 7.07l3.66 2.84c.87-2.6 3.3-4.53 6.16-4.53z" fill="#EA4335"/>
  </symbol>
  <symbol id="microsoft" viewBox="0 0 24 24">
    <path d="M2 2h9.5v9.5H2z" fill="#F25022"/>
    <path d="M12.5 2H22v9.5h-9.5z" fill="#7FBA00"/>
    <path d="M2 12.5h9.5V22H2z" fill="#00A4EF"/>
    <path d="M12.5 12.5H22V22h-9.5z" fill="#FFB900"/>
  </symbol>
  <symbol id="apple" viewBox="0 0 24 24">
    <path d="M17.05 12.24c-.03-2.37 1.94-3.51 2.03-3.57-1.11-1.62-2.83-1.84-3.44-1.87-1.46-.15-2.85.86-3.59.86-.75 0-1.9-.84-3.13-.82-1.61.02-3.09.94-3.92 2.38-1.67 2.9-.43 7.2 1.2 9.56.8 1.15 1.75 2.44 3 2.39 1.2-.05 1.66-.77 3.11-.77 1.45 0 1.86.77 3.13.75 1.29-.02 2.11-1.17 2.9-2.32.91-1.34 1.29-2.64 1.31-2.7-.03-.01-2.52-.97-2.6-3.89z"/>
    <path d="M14.69 5.26c.66-.8 1.1-1.91.98-3.02-.95.04-2.1.63-2.78 1.43-.61.7-1.14 1.83-1 2.91 1.06.08 2.14-.54 2.8-1.32z"/>
  </symbol>
  <symbol id="trash-can" viewBox="0 0 24 24">
    <path stroke-linecap="round" stroke-linejoin="round" stroke-width="2"
                         d="M14.74 9l-.346 9m-4.788 0L9.26 9m9.968-3.21c.342.052.682.107 1.022.166M19.228 5.79L18.16 19.673A2.25 2.25 0 0115.916 21H8.084a2.25 2.25 0 01-2.244-2.077L4.772 5.79m14.456 0a48.108 48.108 0 00-3.478-.397m-12 .563c.34-.059.68-.114 1.022-.165m0 0a48.11 48.11 0 013.478-.397m7.5 0v-.916c0-1.18-.91-2.164-2.09-2.201a51.964 51.964 0 00-3.32 0c-1.18.037-2.09 1.022-2.09 2.201v.916m7.5 0a48.667 48.667 0 00-7.5 0"/>
  </symbol>
  <symbol id="settings" viewBox="0 0 24 24">
    <path stroke-linecap="round" stroke-linejoin="round" stroke-width="2"
                    d="M10.325 4.317c.426-1.756 2.924-1.756 3.35 0a1.724 1.724 0 002.573 1.066c1.543-.94 3.31.826 2.37 2.37a1.724 1.724 0 001.065 2.572c1.756.426 1.756 2.924 0 3.35a1.724 1.724 0 00-1.066 2.573c.94 1.543-.826 3.31-2.37 2.37a1.724 1.724 0 00-2.572 1.065c-.426 1.756-2.924 1.756-3.35 0a1.724 1.724 0 00-2.573-1.066c-1.543.94-3.31-.826-2.37-2.37a1.724 1.724 0 00-1.065-2.572c-1.756-.426-1.756-2.924 0-3.35a1.724 1.724 0 001.066-2.573c-.94-1.543.826-3.31 2.37-2.37.996.608 2.296.07 2.572-1.065z"/>
                  <path stroke-linecap="round" stroke-linejoin="round" stroke-width="2" d="M15 12a3 3 0 11-6 0 3 3 0 016 0z"/>
  </symbol>
  <symbol id="check-circle" viewBox="0 0 20 20">
    <path fill-rule="evenodd" d="M10 18a8 8 0 100-16 8 8 0 000 16zm3.707-9.293a1 1 0 00-1.414-1.414L9 10.586 7.707 9.293a1 1 0 00-1.414 1.414l2 2a1 1 0 001.414 0l4-4z" clip-rule="evenodd"/>
  </symbol>
  <symbol id="key" viewBox="0 0 24 24">
    <path stroke-linecap="round" stroke-linejoin="round"
                 d="M15.75 5.25a3 3 0 013 3m3 0a6 6 0 01-7.029 5.912c-.563-.097-1.159.026-1.563.43L10.5 17.25H8.25v2.25H6v2.25H2.25v-2.818c0-.597.237-1.17.659-1.591l6.499-6.499c.404-.404.527-1 .43-1.563A6 6 0 1121.75 8.25z"/>
  </symbol>
  <symbol id="list" viewBox="0 0 24 24">
    <path stroke-linecap="round" stroke-linejoin="round" stroke-width="2"
                      d="M19 11H5m14-4H5m14 8H5m14 4H5"/>
  </symbol>
  <symbol id="list-filter" viewBox="0 0 24 24">
    <path stroke-linecap="round" stroke-linejoin="round" stroke-width="2"
                      d="M4 6h16M4 12h10M4 18h7"/>
  </symbol>
  <symbol id="logout" viewBox="0 0 24 24">
    <path stroke-linecap="round" stroke-linejoin="round" stroke-width="2"
                      d="M17 16l4-4m0 0l-4-4m4 4H7m6 4v1a3 3 0 01-3 3H6a3 3 0 01-3-3V7a3 3 0 013-3h4a3 3 0 013 3v1"/>
  </symbol>
  <symbol id="menu" viewBox="0 0 24 24">
    <path stroke-linecap="round" stroke-linejoin="round" stroke-width="2"
                  d="M3 7h18M3 12h18M3 17h18"/>
  </symbol>
  <symbol id="moon" viewBox="0 0 24 24">
    <path stroke-linecap="round" stroke-linejoin="round" stroke-width="2"
                    d="M20.354 15.354A9 9 0 018.646 3.646 9.003 9.003 0 1012 21a8.96 8.96 0 008.354-5.646z"/>
  </symbol>
  <symbol id="pencil-square" viewBox="0 0 24 24">
    <path stroke-linecap="round" stroke-linejoin="round" stroke-width="2"
                                d="M16.862 4.487l1.687-1.688a1.875 1.875 0 112.652 2.652L10.582 16.07a4.5 4.5 0 01-1.897 1.13L6 18l.8-2.685a4.5 4.5 0 011.13-1.897l8.932-8.931z"/>
                          <path stroke-linecap="round" stroke-linejoin="round" stroke-width="2"
                                d="M19.5 7.125L16.875 4.5M18 14v4.75A2.25 2.25 0 0115.75 21H5.25A2.25 2.25 0 013 18.75V8.25A2.25 2.25 0 015.25 6H10"/>
  </symbol>
  <symbol id="plus" viewBox="0 0 24 24">
    <path stroke-linecap="round" stroke-linejoin="round" stroke-width="2" d="M12 4v16m8-8H4"/>
  </symbol>
  <symbol id="search" viewBox="0 0 24 24">
    <path stroke-linecap="round" stroke-linejoin="round" stroke-width="2"
                      d="M21 21l-4.35-4.35m1.1-5.4a6.5 6.5 0 11-13 0 6.5 6.5 0 0113 0z"/>
  </symbol>
  <symbol id="shield-check" viewBox="0 0 24 24">
    <path stroke-linecap="round" stroke-linejoin="round" stroke-width="2"
                      d="M9 12l2 2 4-4m5.618-4.016A11.955 11.955 0 0112 2.944a11.955 11.955 0 01-8.618 3.04A12.02 12.02 0 003 9c0 5.591 3.824 10.29 9 11.622 5.176-1.332 9-6.03 9-11.622 0-1.042-.133-2.052-.382-3.016z"/>
  </symbol>
  <symbol id="sun" viewBox="0 0 24 24">
    <path stroke-linecap="round" stroke-linejoin="round" stroke-width="2"
                    d="M12 3v1m0 16v1m9-9h-1M4 12H3m15.364-6.364l-.707.707M6.343 17.657l-.707.707m12.728 0l-.707-.707M6.343 6.343l-.707-.707M16 12a4 4 0 11-8 0 4 4 0 018 0z"/>
  </symbol>
  <symbol id="tag" viewBox="0 0 24 24">
    <path stroke-linecap="round" stroke-linejoin="round" stroke-width="2"
                  d="M7 7h.01M7 3h5c.512 0 1.024.195 1.414.586l7 7a2 2 0 010 2.828l-7 7a2 2 0 01-2.828 0l-7-7A2 2 0 013 12V7a2 2 0 012-2z"/>
  </symbol>
  <symbol id="trash" viewBox="0 0 24 24">
    <path stroke-linecap="round" stroke-linejoin="round" stroke-width="2"
                  d="M19 7l-.867 12.142A2 2 0 0116.138 21H7.862a2 2 0 01-1.995-1.858L5 7m5 4v6m4-6v6M9 7V4a1 1 0 011-1h4a1 1 0 011 1v3M4 7h16"/>
  </symbol>
  <symbol id="upload" viewBox="0 0 24 24">
    <path stroke-linecap="round" stroke-linejoin="round" stroke-width="2"
                      d="M12 3v12m0-12l4 4m-4-4L8 7M4.5 15.75v3A2.25 2.25 0 006.75 21h10.5a2.25 2.25 0 002.25-2.25v-3"/>
  </symbol>
  <symbol id="user" viewBox="0 0 24 24">
    <path stroke-linecap="round" stroke-linejoin="round" stroke-width="2"
                        d="M15.75 6a3.75 3.75 0 11-7.5 0 3.75 3.75 0 017.5 0zM4.5 20.25a8.25 8.25 0 0115 0"/>
  </symbol>
  <symbol id="user-group" viewBox="0 0 24 24">
    <path stroke-linecap="round" stroke-linejoin="round" stroke-width="2"
                      d="M17 20h5v-2a4 4 0 00-4-4h-1M9 20H4v-2a4 4 0 014-4h1m4 6v-2a4 4 0 00-8 0v2m12-10a4 4 0 10-8 0 4 4 0 008 0z"/>
  </symbol>
  <symbol id="users" viewBox="0 0 24 24">
    <path stroke-linecap="round" stroke-linejoin="round" stroke-width="2"
                      d="M17 20h5v-2a4 4 0 00-3-3.87M9 20H4v-2a4 4 0 013-3.87m6-1.13a4 4 0 10-4-4 4 4 0 004 4z"/>
  </symbol>
  <symbol id="warning" viewBox="0 0 24 24">
    <path stroke-linecap="round" stroke-linejoin="round" stroke-width="2"
                                  d="M12 9v4m0 4h.01M10.29 3.86L1.82 18a2 2 0 001.71 3h16.94a2 2 0 001.71-3L13.71 3.86a2 2 0 00-3.42 0z"/>
  </symbol>
  <symbol id="x" viewBox="0 0 24 24">
    <path stroke-linecap="round" stroke-linejoin="round" stroke-width="2" d="M6 18L18 6M6 6l12 12"/>
  </symbol>
</svg>
